<svg width="79" height="52" viewBox="0 0 79 52" fill="none" xmlns="http://www.w3.org/2000/svg">
<rect width="79" height="32" transform="matrix(-1 0 0 1 79 10)" fill="#555555"/>
<rect width="43" height="6" transform="matrix(-1 0 0 1 79 0)" fill="#C45050"/>
<rect width="37" height="6" transform="matrix(-1 0 0 1 79 46)" fill="#C45050"/>
<rect width="31" height="6" transform="matrix(-1 0 0 1 31 0)" fill="#C45050"/>
<rect width="37" height="6" transform="matrix(-1 0 0 1 37 46)" fill="#C45050"/>
<path d="M42.6084 25.4521V26.7646H35.4307L35.376 25.7734L39.6689 19.0469H40.9883L39.5596 21.4941L37.0918 25.4521H42.6084ZM41.3643 19.0469V29H39.7168V19.0469H41.3643Z" fill="#F9F9F9"/>
</svg>
