<svg width="79" height="52" viewBox="0 0 79 52" fill="none" xmlns="http://www.w3.org/2000/svg">
<rect width="79" height="32" transform="matrix(-1 0 0 1 79 10)" fill="#555555"/>
<rect width="43" height="6" transform="matrix(-1 0 0 1 79 0)" fill="#C45050"/>
<rect y="46" width="43" height="6" fill="#C45050"/>
<rect width="31" height="6" transform="matrix(-1 0 0 1 31 0)" fill="#C45050"/>
<rect x="48" y="46" width="31" height="6" fill="#C45050"/>
<path d="M40.7285 18.9854H40.9336V20.332H40.8174C40.2295 20.332 39.7214 20.4232 39.293 20.6055C38.8691 20.7878 38.5205 21.0384 38.2471 21.3574C37.9736 21.6764 37.7686 22.0501 37.6318 22.4785C37.4997 22.9023 37.4336 23.3535 37.4336 23.832V25.3975C37.4336 25.7939 37.4769 26.1449 37.5635 26.4502C37.6501 26.751 37.7708 27.0039 37.9258 27.209C38.0853 27.4095 38.2676 27.5622 38.4727 27.667C38.6777 27.7718 38.8988 27.8242 39.1357 27.8242C39.3818 27.8242 39.6051 27.7741 39.8057 27.6738C40.0062 27.569 40.1771 27.4255 40.3184 27.2432C40.4596 27.0609 40.5667 26.8444 40.6396 26.5938C40.7126 26.3431 40.749 26.0697 40.749 25.7734C40.749 25.4909 40.7126 25.2266 40.6396 24.9805C40.5713 24.7298 40.4688 24.5111 40.332 24.3242C40.1953 24.1328 40.0244 23.9847 39.8193 23.8799C39.6188 23.7705 39.3864 23.7158 39.1221 23.7158C38.7939 23.7158 38.4954 23.7933 38.2266 23.9482C37.9622 24.1032 37.748 24.306 37.584 24.5566C37.4245 24.8027 37.3379 25.0648 37.3242 25.3428L36.6953 25.1377C36.7318 24.7139 36.8252 24.3333 36.9756 23.9961C37.1305 23.6589 37.3333 23.3717 37.584 23.1348C37.8346 22.8978 38.124 22.7178 38.4521 22.5947C38.7848 22.4671 39.1494 22.4033 39.5459 22.4033C40.029 22.4033 40.4482 22.4945 40.8037 22.6768C41.1592 22.859 41.4531 23.1074 41.6855 23.4219C41.9225 23.7318 42.098 24.0872 42.2119 24.4883C42.3304 24.8848 42.3896 25.2995 42.3896 25.7324C42.3896 26.2109 42.3167 26.6576 42.1709 27.0723C42.0251 27.4824 41.8109 27.8424 41.5283 28.1523C41.2503 28.4622 40.9108 28.7038 40.5098 28.877C40.1133 29.0501 39.6621 29.1367 39.1562 29.1367C38.623 29.1367 38.1468 29.0342 37.7275 28.8291C37.3128 28.624 36.9596 28.3415 36.668 27.9814C36.3809 27.6214 36.1621 27.2067 36.0117 26.7373C35.8613 26.2679 35.7861 25.7712 35.7861 25.2471V24.5635C35.7861 23.807 35.8818 23.0938 36.0732 22.4238C36.2646 21.7493 36.5586 21.1546 36.9551 20.6396C37.3561 20.1247 37.8688 19.7214 38.4932 19.4297C39.1175 19.1335 39.8626 18.9854 40.7285 18.9854Z" fill="#F9F9F9"/>
</svg>
