<svg width="79" height="52" viewBox="0 0 79 52" fill="none" xmlns="http://www.w3.org/2000/svg">
<rect width="79" height="32" transform="matrix(-1 0 0 1 79 10)" fill="#555555"/>
<rect width="79" height="6" transform="matrix(-1 0 0 1 79 0)" fill="#C45050"/>
<rect width="31" height="6" transform="matrix(-1 0 0 1 31 46)" fill="#C45050"/>
<path d="M37.4814 24.3721L36.1689 24.0508L36.709 19.0469H42.0752V20.4414H38.0762L37.8027 22.8818C37.9577 22.7907 38.1719 22.7018 38.4453 22.6152C38.7188 22.5241 39.0309 22.4785 39.3818 22.4785C39.8512 22.4785 40.2705 22.556 40.6396 22.7109C41.0133 22.8613 41.3301 23.0824 41.5898 23.374C41.8496 23.6611 42.0479 24.012 42.1846 24.4268C42.3213 24.8369 42.3896 25.2995 42.3896 25.8145C42.3896 26.2747 42.3213 26.7054 42.1846 27.1064C42.0524 27.5075 41.8519 27.8607 41.583 28.166C41.3141 28.4714 40.9746 28.7106 40.5645 28.8838C40.1589 29.0524 39.6781 29.1367 39.1221 29.1367C38.7074 29.1367 38.3086 29.0775 37.9258 28.959C37.5475 28.8359 37.208 28.6559 36.9072 28.4189C36.6064 28.1774 36.3649 27.8812 36.1826 27.5303C36.0003 27.1748 35.8955 26.7669 35.8682 26.3066H37.4814C37.5225 26.6302 37.6113 26.9059 37.748 27.1338C37.8893 27.3571 38.0762 27.528 38.3086 27.6465C38.541 27.765 38.8099 27.8242 39.1152 27.8242C39.3932 27.8242 39.6325 27.7764 39.833 27.6807C40.0335 27.5804 40.1999 27.4391 40.332 27.2568C40.4688 27.07 40.569 26.8512 40.6328 26.6006C40.7012 26.3499 40.7354 26.0719 40.7354 25.7666C40.7354 25.4749 40.6966 25.2083 40.6191 24.9668C40.5462 24.7253 40.4346 24.5156 40.2842 24.3379C40.1383 24.1602 39.9538 24.0234 39.7305 23.9277C39.5072 23.8275 39.2497 23.7773 38.958 23.7773C38.5661 23.7773 38.2653 23.8343 38.0557 23.9482C37.8506 24.0622 37.6592 24.2035 37.4814 24.3721Z" fill="#F9F9F9"/>
<rect width="43" height="6" transform="matrix(-1 0 0 1 79 46)" fill="#C45050"/>
</svg>
