<svg width="79" height="52" viewBox="0 0 79 52" fill="none" xmlns="http://www.w3.org/2000/svg">
<rect y="10" width="79" height="32" fill="#555555"/>
<rect width="43" height="6" fill="#C45050"/>
<rect y="46" width="79" height="6" fill="#C45050"/>
<rect x="48" width="31" height="6" fill="#C45050"/>
<path d="M42.2598 26.2861C42.2598 26.9059 42.1162 27.4277 41.8291 27.8516C41.542 28.2754 41.1501 28.5967 40.6533 28.8154C40.1611 29.0296 39.6051 29.1367 38.9854 29.1367C38.3656 29.1367 37.8073 29.0296 37.3105 28.8154C36.8138 28.5967 36.4219 28.2754 36.1348 27.8516C35.8477 27.4277 35.7041 26.9059 35.7041 26.2861C35.7041 25.876 35.7839 25.5046 35.9434 25.1719C36.1029 24.8346 36.3285 24.5452 36.6201 24.3037C36.9163 24.0576 37.2627 23.8685 37.6592 23.7363C38.0602 23.6042 38.4977 23.5381 38.9717 23.5381C39.6006 23.5381 40.1634 23.6543 40.6602 23.8867C41.1569 24.1191 41.5465 24.4404 41.8291 24.8506C42.1162 25.2607 42.2598 25.7393 42.2598 26.2861ZM40.6055 26.2041C40.6055 25.8714 40.5371 25.5798 40.4004 25.3291C40.2637 25.0785 40.0723 24.8848 39.8262 24.748C39.5801 24.6113 39.2952 24.543 38.9717 24.543C38.6436 24.543 38.3587 24.6113 38.1172 24.748C37.8757 24.8848 37.6865 25.0785 37.5498 25.3291C37.4176 25.5798 37.3516 25.8714 37.3516 26.2041C37.3516 26.5413 37.4176 26.833 37.5498 27.0791C37.682 27.3206 37.8711 27.5052 38.1172 27.6328C38.3633 27.7604 38.6527 27.8242 38.9854 27.8242C39.318 27.8242 39.6051 27.7604 39.8467 27.6328C40.0882 27.5052 40.2751 27.3206 40.4072 27.0791C40.5394 26.833 40.6055 26.5413 40.6055 26.2041ZM42.0342 21.665C42.0342 22.1618 41.902 22.6038 41.6377 22.9912C41.3779 23.3786 41.0179 23.6839 40.5576 23.9072C40.0973 24.126 39.5732 24.2354 38.9854 24.2354C38.3929 24.2354 37.8643 24.126 37.3994 23.9072C36.9391 23.6839 36.5768 23.3786 36.3125 22.9912C36.0527 22.6038 35.9229 22.1618 35.9229 21.665C35.9229 21.0726 36.0527 20.5736 36.3125 20.168C36.5768 19.7578 36.9391 19.4456 37.3994 19.2314C37.8597 19.0173 38.3861 18.9102 38.9785 18.9102C39.571 18.9102 40.0973 19.0173 40.5576 19.2314C41.0179 19.4456 41.3779 19.7578 41.6377 20.168C41.902 20.5736 42.0342 21.0726 42.0342 21.665ZM40.3867 21.7197C40.3867 21.4235 40.3275 21.1637 40.209 20.9404C40.0951 20.7126 39.9333 20.5348 39.7236 20.4072C39.514 20.2796 39.2656 20.2158 38.9785 20.2158C38.6914 20.2158 38.443 20.2773 38.2334 20.4004C38.0238 20.5234 37.862 20.6966 37.748 20.9199C37.6341 21.1432 37.5771 21.4098 37.5771 21.7197C37.5771 22.0251 37.6341 22.2917 37.748 22.5195C37.862 22.7428 38.0238 22.9183 38.2334 23.0459C38.4476 23.1735 38.6982 23.2373 38.9854 23.2373C39.2725 23.2373 39.5208 23.1735 39.7305 23.0459C39.9401 22.9183 40.1019 22.7428 40.2158 22.5195C40.3298 22.2917 40.3867 22.0251 40.3867 21.7197Z" fill="#F9F9F9"/>
</svg>
