<svg width="79" height="52" viewBox="0 0 79 52" fill="none" xmlns="http://www.w3.org/2000/svg">
<rect y="10" width="79" height="32" fill="#555555"/>
<rect width="43" height="6" fill="#C45050"/>
<rect y="46" width="37" height="6" fill="#C45050"/>
<rect x="48" width="31" height="6" fill="#C45050"/>
<rect x="42" y="46" width="37" height="6" fill="#C45050"/>
<path d="M37.6865 23.2783H38.6709C39.0537 23.2783 39.3704 23.2122 39.6211 23.0801C39.8763 22.9479 40.0654 22.7656 40.1885 22.5332C40.3115 22.3008 40.373 22.0342 40.373 21.7334C40.373 21.4189 40.3161 21.1501 40.2021 20.9268C40.0928 20.6989 39.9242 20.5234 39.6963 20.4004C39.473 20.2773 39.1882 20.2158 38.8418 20.2158C38.5501 20.2158 38.2858 20.2751 38.0488 20.3936C37.8164 20.5075 37.6318 20.6715 37.4951 20.8857C37.3584 21.0954 37.29 21.346 37.29 21.6377H35.6357C35.6357 21.109 35.7747 20.6396 36.0527 20.2295C36.3307 19.8193 36.709 19.498 37.1875 19.2656C37.6706 19.0286 38.2129 18.9102 38.8145 18.9102C39.457 18.9102 40.0176 19.0173 40.4961 19.2314C40.9792 19.4411 41.3551 19.7555 41.624 20.1748C41.8929 20.5941 42.0273 21.1136 42.0273 21.7334C42.0273 22.016 41.9613 22.3031 41.8291 22.5947C41.6969 22.8864 41.501 23.153 41.2412 23.3945C40.9814 23.6315 40.6579 23.8252 40.2705 23.9756C39.8831 24.1214 39.4342 24.1943 38.9238 24.1943H37.6865V23.2783ZM37.6865 24.5635V23.6611H38.9238C39.5072 23.6611 40.0039 23.7295 40.4141 23.8662C40.8288 24.0029 41.166 24.1921 41.4258 24.4336C41.6855 24.6706 41.8747 24.9417 41.9932 25.2471C42.1162 25.5524 42.1777 25.876 42.1777 26.2178C42.1777 26.6826 42.0934 27.0973 41.9248 27.4619C41.7607 27.8219 41.526 28.1273 41.2207 28.3779C40.9154 28.6286 40.5576 28.8177 40.1475 28.9453C39.7419 29.0729 39.2998 29.1367 38.8213 29.1367C38.3929 29.1367 37.9827 29.0775 37.5908 28.959C37.1989 28.8405 36.848 28.665 36.5381 28.4326C36.2282 28.1956 35.9821 27.9017 35.7998 27.5508C35.6221 27.1953 35.5332 26.7852 35.5332 26.3203H37.1807C37.1807 26.6165 37.249 26.8786 37.3857 27.1064C37.527 27.3298 37.723 27.5052 37.9736 27.6328C38.2288 27.7604 38.5205 27.8242 38.8486 27.8242C39.195 27.8242 39.4935 27.7627 39.7441 27.6396C39.9948 27.5166 40.1862 27.3343 40.3184 27.0928C40.4551 26.8512 40.5234 26.5596 40.5234 26.2178C40.5234 25.8304 40.4482 25.516 40.2979 25.2744C40.1475 25.0329 39.9333 24.8551 39.6553 24.7412C39.3773 24.6227 39.0492 24.5635 38.6709 24.5635H37.6865Z" fill="#F9F9F9"/>
</svg>
