<svg width="79" height="52" viewBox="0 0 79 52" fill="none" xmlns="http://www.w3.org/2000/svg">
<rect y="10" width="79" height="32" fill="#555555"/>
<rect width="43" height="6" fill="#C45050"/>
<rect y="46" width="43" height="6" fill="#C45050"/>
<rect x="48" width="31" height="6" fill="#C45050"/>
<rect x="48" y="46" width="31" height="6" fill="#C45050"/>
<path d="M42.4238 27.6875V29H35.752V27.8721L38.9922 24.3379C39.3477 23.9368 39.6279 23.5905 39.833 23.2988C40.0381 23.0072 40.1816 22.7451 40.2637 22.5127C40.3503 22.2757 40.3936 22.0456 40.3936 21.8223C40.3936 21.5078 40.3343 21.2321 40.2158 20.9951C40.1019 20.7536 39.9333 20.5645 39.71 20.4277C39.4867 20.2865 39.2155 20.2158 38.8965 20.2158C38.5273 20.2158 38.2174 20.2956 37.9668 20.4551C37.7161 20.6146 37.527 20.8356 37.3994 21.1182C37.2718 21.3962 37.208 21.7152 37.208 22.0752H35.5605C35.5605 21.4964 35.6927 20.9678 35.957 20.4893C36.2214 20.0062 36.6042 19.6234 37.1055 19.3408C37.6068 19.0537 38.2106 18.9102 38.917 18.9102C39.5824 18.9102 40.1475 19.0218 40.6123 19.2451C41.0771 19.4684 41.4303 19.7852 41.6719 20.1953C41.918 20.6055 42.041 21.0908 42.041 21.6514C42.041 21.9613 41.9909 22.2689 41.8906 22.5742C41.7904 22.8796 41.6468 23.1849 41.46 23.4902C41.2777 23.791 41.0612 24.0941 40.8105 24.3994C40.5599 24.7002 40.2842 25.0055 39.9834 25.3154L37.8301 27.6875H42.4238Z" fill="#F9F9F9"/>
</svg>
