<svg width="149" height="55" viewBox="0 0 149 55" fill="none" xmlns="http://www.w3.org/2000/svg">
<circle cx="11.5" cy="14.5" r="11.5" fill="#333333"/>
<path d="M2.3 53C1.6675 53 1.12604 52.7706 0.675625 52.3118C0.225208 51.8531 0 51.3016 0 50.6574V47.1435H23V50.6574C23 51.3016 22.7748 51.8531 22.3244 52.3118C21.874 52.7706 21.3325 53 20.7 53H2.3ZM2.3 49.4861V50.6574H20.7V49.4861H2.3ZM11.5 44.2153C10.81 44.2153 10.2638 44.4105 9.86125 44.8009C9.45875 45.1913 8.72083 45.3866 7.6475 45.3866C6.57417 45.3866 5.84583 45.1913 5.4625 44.8009C5.07917 44.4105 4.5425 44.2153 3.8525 44.2153C3.1625 44.2153 2.61625 44.4105 2.21375 44.8009C1.81125 45.1913 1.07333 45.3866 0 45.3866V43.044C0.69 43.044 1.23625 42.8488 1.63875 42.4583C2.04125 42.0679 2.77917 41.8727 3.8525 41.8727C4.92583 41.8727 5.65417 42.0679 6.0375 42.4583C6.42083 42.8488 6.9575 43.044 7.6475 43.044C8.3375 43.044 8.88375 42.8488 9.28625 42.4583C9.68875 42.0679 10.4267 41.8727 11.5 41.8727C12.5733 41.8727 13.3112 42.0679 13.7137 42.4583C14.1162 42.8488 14.6625 43.044 15.3525 43.044C16.0425 43.044 16.5792 42.8488 16.9625 42.4583C17.3458 42.0679 18.0742 41.8727 19.1475 41.8727C20.2208 41.8727 20.9779 42.0679 21.4188 42.4583C21.8596 42.8488 22.3867 43.044 23 43.044V45.3866C21.9267 45.3866 21.2079 45.1913 20.8438 44.8009C20.4796 44.4105 19.9525 44.2153 19.2625 44.2153C18.5725 44.2153 18.0167 44.4105 17.595 44.8009C17.1733 45.1913 16.4258 45.3866 15.3525 45.3866C14.2792 45.3866 13.5412 45.1913 13.1388 44.8009C12.7362 44.4105 12.19 44.2153 11.5 44.2153ZM0 40.1157V38.9444C0 36.6994 1.03979 34.9669 3.11937 33.7468C5.19896 32.5267 7.9925 31.9167 11.5 31.9167C15.0075 31.9167 17.801 32.5267 19.8806 33.7468C21.9602 34.9669 23 36.6994 23 38.9444V40.1157H0ZM11.5 34.2592C9.12333 34.2592 7.13479 34.5618 5.53438 35.167C3.93396 35.7722 2.91333 36.6409 2.4725 37.7731H20.5275C20.0867 36.6409 19.066 35.7722 17.4656 35.167C15.8652 34.5618 13.8767 34.2592 11.5 34.2592Z" fill="#C45050"/>
<path d="M45.568 7.156C45.848 6.652 46.2493 6.4 46.772 6.4H51.896C52.1013 6.4 52.2787 6.47467 52.428 6.624C52.5773 6.77333 52.652 6.95067 52.652 7.156V25.244C52.652 25.4493 52.5773 25.6267 52.428 25.776C52.2787 25.9253 52.1013 26 51.896 26H46.828C46.6227 26 46.4453 25.9253 46.296 25.776C46.1467 25.6267 46.072 25.4493 46.072 25.244V16.564L44.028 20.596C43.972 20.7267 43.8413 20.876 43.636 21.044C43.4307 21.212 43.1693 21.296 42.852 21.296H40.948C40.6307 21.296 40.3693 21.212 40.164 21.044C39.9587 20.876 39.828 20.7267 39.772 20.596L37.728 16.564V25.244C37.728 25.4493 37.6533 25.6267 37.504 25.776C37.3547 25.9253 37.1773 26 36.972 26H31.904C31.6987 26 31.5213 25.9253 31.372 25.776C31.2227 25.6267 31.148 25.4493 31.148 25.244V7.156C31.148 6.95067 31.2227 6.77333 31.372 6.624C31.5213 6.47467 31.6987 6.4 31.904 6.4H37.028C37.5507 6.4 37.952 6.652 38.232 7.156L41.9 13.876L45.568 7.156ZM74.7611 20.54C74.9664 20.54 75.1437 20.6147 75.2931 20.764C75.4424 20.9133 75.5171 21.0907 75.5171 21.296V25.244C75.5171 25.4493 75.4424 25.6267 75.2931 25.776C75.1437 25.9253 74.9664 26 74.7611 26H57.0651C56.8597 26 56.6824 25.9253 56.5331 25.776C56.3837 25.6267 56.3091 25.4493 56.3091 25.244V7.156C56.3091 6.95067 56.3837 6.77333 56.5331 6.624C56.6824 6.47467 56.8597 6.4 57.0651 6.4H74.4811C74.6864 6.4 74.8637 6.47467 75.0131 6.624C75.1624 6.77333 75.2371 6.95067 75.2371 7.156V11.104C75.2371 11.3093 75.1624 11.4867 75.0131 11.636C74.8637 11.7853 74.6864 11.86 74.4811 11.86H63.5891V13.624H72.9411C73.1464 13.624 73.3237 13.6987 73.4731 13.848C73.6224 13.9973 73.6971 14.1747 73.6971 14.38V18.02C73.6971 18.2253 73.6224 18.4027 73.4731 18.552C73.3237 18.7013 73.1464 18.776 72.9411 18.776H63.5891V20.54H74.7611ZM98.2421 6.4C98.4475 6.4 98.6248 6.47467 98.7741 6.624C98.9235 6.77333 98.9981 6.95067 98.9981 7.156V25.244C98.9981 25.4493 98.9235 25.6267 98.7741 25.776C98.6248 25.9253 98.4475 26 98.2421 26H93.7341C93.2861 26 92.9128 25.804 92.6141 25.412L86.5101 17.628V25.244C86.5101 25.4493 86.4355 25.6267 86.2861 25.776C86.1368 25.9253 85.9595 26 85.7541 26H80.5461C80.3408 26 80.1635 25.9253 80.0141 25.776C79.8648 25.6267 79.7901 25.4493 79.7901 25.244V7.156C79.7901 6.95067 79.8648 6.77333 80.0141 6.624C80.1635 6.47467 80.3408 6.4 80.5461 6.4H85.0821C85.5301 6.4 85.8941 6.58667 86.1741 6.96L92.2781 15.388V7.156C92.2781 6.95067 92.3528 6.77333 92.5021 6.624C92.6515 6.47467 92.8288 6.4 93.0341 6.4H98.2421ZM114.807 13.512C116.861 13.736 118.503 14.1 119.735 14.604C120.986 15.108 121.891 15.7707 122.451 16.592C123.011 17.4133 123.291 18.44 123.291 19.672C123.291 21.016 122.853 22.192 121.975 23.2C121.117 24.1893 119.922 24.9547 118.391 25.496C116.861 26.0187 115.115 26.28 113.155 26.28C110.971 26.28 109.123 26.0093 107.611 25.468C106.099 24.9267 104.97 24.208 104.223 23.312C103.477 22.3973 103.103 21.3987 103.103 20.316C103.103 20.1293 103.159 19.98 103.271 19.868C103.402 19.756 103.561 19.7 103.747 19.7H109.487C109.879 19.7 110.197 19.8213 110.439 20.064C110.757 20.3627 111.111 20.568 111.503 20.68C111.895 20.7733 112.446 20.82 113.155 20.82C114.929 20.82 115.815 20.5493 115.815 20.008C115.815 19.784 115.694 19.5973 115.451 19.448C115.227 19.28 114.817 19.14 114.219 19.028C113.641 18.8973 112.782 18.7667 111.643 18.636C109.086 18.3373 107.126 17.7027 105.763 16.732C104.401 15.7427 103.719 14.352 103.719 12.56C103.719 11.2907 104.102 10.1707 104.867 9.2C105.633 8.22933 106.715 7.47333 108.115 6.932C109.534 6.39067 111.177 6.12 113.043 6.12C114.985 6.12 116.683 6.428 118.139 7.044C119.595 7.64133 120.706 8.388 121.471 9.284C122.237 10.18 122.619 11.0573 122.619 11.916C122.619 12.1027 122.554 12.252 122.423 12.364C122.311 12.476 122.153 12.532 121.947 12.532H115.927C115.61 12.532 115.321 12.42 115.059 12.196C114.854 12.0093 114.611 11.86 114.331 11.748C114.051 11.636 113.622 11.58 113.043 11.58C111.793 11.58 111.167 11.8413 111.167 12.364C111.167 12.644 111.41 12.868 111.895 13.036C112.381 13.1853 113.351 13.344 114.807 13.512ZM133.024 25.048C132.782 25.6827 132.362 26 131.764 26H126.472C126.304 26 126.155 25.944 126.024 25.832C125.912 25.7013 125.856 25.552 125.856 25.384L125.884 25.216L131.988 7.324C132.063 7.08133 132.203 6.86667 132.408 6.68C132.614 6.49333 132.894 6.4 133.248 6.4H141.032C141.387 6.4 141.667 6.49333 141.872 6.68C142.078 6.86667 142.218 7.08133 142.292 7.324L148.396 25.216L148.424 25.384C148.424 25.552 148.359 25.7013 148.228 25.832C148.116 25.944 147.976 26 147.808 26H142.516C141.919 26 141.499 25.6827 141.256 25.048L140.556 23.088H133.724L133.024 25.048ZM137.14 11.804L135.152 17.628H139.128L137.14 11.804Z" fill="#C45050"/>
<path d="M45.568 34.156C45.848 33.652 46.2493 33.4 46.772 33.4H51.896C52.1013 33.4 52.2787 33.4747 52.428 33.624C52.5773 33.7733 52.652 33.9507 52.652 34.156V52.244C52.652 52.4493 52.5773 52.6267 52.428 52.776C52.2787 52.9253 52.1013 53 51.896 53H46.828C46.6227 53 46.4453 52.9253 46.296 52.776C46.1467 52.6267 46.072 52.4493 46.072 52.244V43.564L44.028 47.596C43.972 47.7267 43.8413 47.876 43.636 48.044C43.4307 48.212 43.1693 48.296 42.852 48.296H40.948C40.6307 48.296 40.3693 48.212 40.164 48.044C39.9587 47.876 39.828 47.7267 39.772 47.596L37.728 43.564V52.244C37.728 52.4493 37.6533 52.6267 37.504 52.776C37.3547 52.9253 37.1773 53 36.972 53H31.904C31.6987 53 31.5213 52.9253 31.372 52.776C31.2227 52.6267 31.148 52.4493 31.148 52.244V34.156C31.148 33.9507 31.2227 33.7733 31.372 33.624C31.5213 33.4747 31.6987 33.4 31.904 33.4H37.028C37.5507 33.4 37.952 33.652 38.232 34.156L41.9 40.876L45.568 34.156ZM74.7611 47.54C74.9664 47.54 75.1437 47.6147 75.2931 47.764C75.4424 47.9133 75.5171 48.0907 75.5171 48.296V52.244C75.5171 52.4493 75.4424 52.6267 75.2931 52.776C75.1437 52.9253 74.9664 53 74.7611 53H57.0651C56.8597 53 56.6824 52.9253 56.5331 52.776C56.3837 52.6267 56.3091 52.4493 56.3091 52.244V34.156C56.3091 33.9507 56.3837 33.7733 56.5331 33.624C56.6824 33.4747 56.8597 33.4 57.0651 33.4H74.4811C74.6864 33.4 74.8637 33.4747 75.0131 33.624C75.1624 33.7733 75.2371 33.9507 75.2371 34.156V38.104C75.2371 38.3093 75.1624 38.4867 75.0131 38.636C74.8637 38.7853 74.6864 38.86 74.4811 38.86H63.5891V40.624H72.9411C73.1464 40.624 73.3237 40.6987 73.4731 40.848C73.6224 40.9973 73.6971 41.1747 73.6971 41.38V45.02C73.6971 45.2253 73.6224 45.4027 73.4731 45.552C73.3237 45.7013 73.1464 45.776 72.9411 45.776H63.5891V47.54H74.7611ZM98.5501 47.54C98.7555 47.54 98.9328 47.6147 99.0821 47.764C99.2315 47.9133 99.3061 48.0907 99.3061 48.296V52.244C99.3061 52.4493 99.2315 52.6267 99.0821 52.776C98.9328 52.9253 98.7555 53 98.5501 53H80.8541C80.6488 53 80.4715 52.9253 80.3221 52.776C80.1728 52.6267 80.0981 52.4493 80.0981 52.244V34.156C80.0981 33.9507 80.1728 33.7733 80.3221 33.624C80.4715 33.4747 80.6488 33.4 80.8541 33.4H98.2701C98.4755 33.4 98.6528 33.4747 98.8021 33.624C98.9515 33.7733 99.0261 33.9507 99.0261 34.156V38.104C99.0261 38.3093 98.9515 38.4867 98.8021 38.636C98.6528 38.7853 98.4755 38.86 98.2701 38.86H87.3781V40.624H96.7301C96.9355 40.624 97.1128 40.6987 97.2621 40.848C97.4115 40.9973 97.4861 41.1747 97.4861 41.38V45.02C97.4861 45.2253 97.4115 45.4027 97.2621 45.552C97.1128 45.7013 96.9355 45.776 96.7301 45.776H87.3781V47.54H98.5501ZM122.927 33.4C123.133 33.4 123.31 33.4747 123.459 33.624C123.609 33.7733 123.683 33.9507 123.683 34.156V38.664C123.683 38.8693 123.609 39.0467 123.459 39.196C123.31 39.3453 123.133 39.42 122.927 39.42H116.907V52.244C116.907 52.4493 116.833 52.6267 116.683 52.776C116.534 52.9253 116.357 53 116.151 53H110.383C110.178 53 110.001 52.9253 109.851 52.776C109.702 52.6267 109.627 52.4493 109.627 52.244V39.42H103.607C103.402 39.42 103.225 39.3453 103.075 39.196C102.926 39.0467 102.851 38.8693 102.851 38.664V34.156C102.851 33.9507 102.926 33.7733 103.075 33.624C103.225 33.4747 103.402 33.4 103.607 33.4H122.927Z" fill="#C45050"/>
</svg>
