<svg width="188" height="21" viewBox="0 0 188 21" fill="none" xmlns="http://www.w3.org/2000/svg">
<path d="M21.3598 19.132C21.3971 19.2067 21.4158 19.2907 21.4158 19.384C21.4158 19.552 21.3504 19.7013 21.2198 19.832C21.1078 19.944 20.9678 20 20.7998 20H14.4438C14.1824 20 13.9398 19.9347 13.7158 19.804C13.5104 19.6733 13.3611 19.5053 13.2678 19.3L10.8038 13.756H8.45175V19.244C8.45175 19.4493 8.37708 19.6267 8.22775 19.776C8.07842 19.9253 7.90108 20 7.69575 20H1.64775C1.44242 20 1.26508 19.9253 1.11575 19.776C0.966417 19.6267 0.89175 19.4493 0.89175 19.244V1.156C0.89175 0.950666 0.966417 0.773333 1.11575 0.623999C1.26508 0.474665 1.44242 0.399999 1.64775 0.399999H12.5398C14.2198 0.399999 15.6851 0.670666 16.9358 1.212C18.2051 1.75333 19.1758 2.53733 19.8478 3.564C20.5198 4.59067 20.8558 5.79467 20.8558 7.176C20.8558 9.71467 19.8758 11.5533 17.9158 12.692L21.3598 19.132ZM11.9518 8.576C12.3624 8.576 12.6798 8.44533 12.9038 8.184C13.1278 7.904 13.2398 7.55867 13.2398 7.148C13.2398 6.73733 13.1278 6.38267 12.9038 6.084C12.6984 5.76667 12.3811 5.608 11.9518 5.608H8.45175V8.576H11.9518ZM43.1048 14.54C43.3101 14.54 43.4875 14.6147 43.6368 14.764C43.7861 14.9133 43.8608 15.0907 43.8608 15.296V19.244C43.8608 19.4493 43.7861 19.6267 43.6368 19.776C43.4875 19.9253 43.3101 20 43.1048 20H25.4088C25.2035 20 25.0261 19.9253 24.8768 19.776C24.7275 19.6267 24.6528 19.4493 24.6528 19.244V1.156C24.6528 0.950666 24.7275 0.773333 24.8768 0.623999C25.0261 0.474665 25.2035 0.399999 25.4088 0.399999H42.8248C43.0301 0.399999 43.2075 0.474665 43.3568 0.623999C43.5061 0.773333 43.5808 0.950666 43.5808 1.156V5.104C43.5808 5.30933 43.5061 5.48667 43.3568 5.636C43.2075 5.78533 43.0301 5.86 42.8248 5.86H31.9328V7.624H41.2848C41.4901 7.624 41.6675 7.69867 41.8168 7.848C41.9661 7.99733 42.0408 8.17467 42.0408 8.38V12.02C42.0408 12.2253 41.9661 12.4027 41.8168 12.552C41.6675 12.7013 41.4901 12.776 41.2848 12.776H31.9328V14.54H43.1048ZM67.9019 8.184C68.1072 8.184 68.2845 8.25867 68.4339 8.408C68.5832 8.55733 68.6579 8.73467 68.6579 8.94V11.908C68.6579 14.7453 67.6872 16.8547 65.7459 18.236C63.8232 19.5987 61.2752 20.28 58.1019 20.28C54.9285 20.28 52.3712 19.5987 50.4299 18.236C48.5072 16.8547 47.5459 14.7267 47.5459 11.852V8.548C47.5459 6.644 48.0125 5.06667 48.9459 3.816C49.8792 2.54667 51.1392 1.61333 52.7259 1.016C54.3125 0.418666 56.1045 0.119999 58.1019 0.119999C60.4912 0.119999 62.4605 0.511999 64.0099 1.296C65.5592 2.08 66.6792 2.96667 67.3699 3.956C68.0792 4.94533 68.4339 5.748 68.4339 6.364C68.4339 6.532 68.3685 6.68133 68.2379 6.812C68.1259 6.924 67.9859 6.98 67.8179 6.98H61.4899C61.1165 6.98 60.8459 6.87733 60.6779 6.672C60.0992 5.944 59.2405 5.58 58.1019 5.58C57.2432 5.58 56.5245 5.776 55.9459 6.168C55.3859 6.56 55.1059 7.064 55.1059 7.68V12.44C55.1059 13.1867 55.3859 13.7747 55.9459 14.204C56.5059 14.6147 57.2245 14.82 58.1019 14.82C59.2592 14.82 60.1085 14.624 60.6499 14.232C61.2099 13.8213 61.4992 13.3453 61.5179 12.804H59.7819C59.5765 12.804 59.3992 12.7293 59.2499 12.58C59.1005 12.4307 59.0259 12.2533 59.0259 12.048V8.94C59.0259 8.73467 59.1005 8.55733 59.2499 8.408C59.3992 8.25867 59.5765 8.184 59.7819 8.184H67.9019ZM85.4189 14.26H90.4869C90.6923 14.26 90.8696 14.3347 91.0189 14.484C91.1683 14.6333 91.2429 14.8107 91.2429 15.016V19.244C91.2429 19.4493 91.1683 19.6267 91.0189 19.776C90.8696 19.9253 90.6923 20 90.4869 20H72.7349C72.5296 20 72.3523 19.9253 72.2029 19.776C72.0536 19.6267 71.9789 19.4493 71.9789 19.244V15.016C71.9789 14.8107 72.0536 14.6333 72.2029 14.484C72.3523 14.3347 72.5296 14.26 72.7349 14.26H77.8589V6.14H72.7349C72.5296 6.14 72.3523 6.06533 72.2029 5.916C72.0536 5.76667 71.9789 5.58933 71.9789 5.384V1.156C71.9789 0.950666 72.0536 0.773333 72.2029 0.623999C72.3523 0.474665 72.5296 0.399999 72.7349 0.399999H90.4869C90.6923 0.399999 90.8696 0.474665 91.0189 0.623999C91.1683 0.773333 91.2429 0.950666 91.2429 1.156V5.384C91.2429 5.58933 91.1683 5.76667 91.0189 5.916C90.8696 6.06533 90.6923 6.14 90.4869 6.14H85.4189V14.26ZM106.94 7.512C108.993 7.736 110.636 8.1 111.868 8.604C113.119 9.108 114.024 9.77067 114.584 10.592C115.144 11.4133 115.424 12.44 115.424 13.672C115.424 15.016 114.985 16.192 114.108 17.2C113.249 18.1893 112.055 18.9547 110.524 19.496C108.993 20.0187 107.248 20.28 105.288 20.28C103.104 20.28 101.256 20.0093 99.744 19.468C98.232 18.9267 97.1027 18.208 96.356 17.312C95.6093 16.3973 95.236 15.3987 95.236 14.316C95.236 14.1293 95.292 13.98 95.404 13.868C95.5347 13.756 95.6933 13.7 95.88 13.7H101.62C102.012 13.7 102.329 13.8213 102.572 14.064C102.889 14.3627 103.244 14.568 103.636 14.68C104.028 14.7733 104.579 14.82 105.288 14.82C107.061 14.82 107.948 14.5493 107.948 14.008C107.948 13.784 107.827 13.5973 107.584 13.448C107.36 13.28 106.949 13.14 106.352 13.028C105.773 12.8973 104.915 12.7667 103.776 12.636C101.219 12.3373 99.2587 11.7027 97.896 10.732C96.5333 9.74267 95.852 8.352 95.852 6.56C95.852 5.29067 96.2347 4.17067 97 3.2C97.7653 2.22933 98.848 1.47333 100.248 0.931998C101.667 0.390665 103.309 0.119999 105.176 0.119999C107.117 0.119999 108.816 0.427999 110.272 1.044C111.728 1.64133 112.839 2.388 113.604 3.284C114.369 4.18 114.752 5.05733 114.752 5.916C114.752 6.10267 114.687 6.252 114.556 6.364C114.444 6.476 114.285 6.532 114.08 6.532H108.06C107.743 6.532 107.453 6.42 107.192 6.196C106.987 6.00933 106.744 5.86 106.464 5.748C106.184 5.636 105.755 5.58 105.176 5.58C103.925 5.58 103.3 5.84133 103.3 6.364C103.3 6.644 103.543 6.868 104.028 7.036C104.513 7.18533 105.484 7.344 106.94 7.512ZM138.849 0.399999C139.054 0.399999 139.232 0.474665 139.381 0.623999C139.53 0.773333 139.605 0.950666 139.605 1.156V5.664C139.605 5.86933 139.53 6.04667 139.381 6.196C139.232 6.34533 139.054 6.42 138.849 6.42H132.829V19.244C132.829 19.4493 132.754 19.6267 132.605 19.776C132.456 19.9253 132.278 20 132.073 20H126.305C126.1 20 125.922 19.9253 125.773 19.776C125.624 19.6267 125.549 19.4493 125.549 19.244V6.42H119.529C119.324 6.42 119.146 6.34533 118.997 6.196C118.848 6.04667 118.773 5.86933 118.773 5.664V1.156C118.773 0.950666 118.848 0.773333 118.997 0.623999C119.146 0.474665 119.324 0.399999 119.529 0.399999H138.849ZM162.05 14.54C162.255 14.54 162.433 14.6147 162.582 14.764C162.731 14.9133 162.806 15.0907 162.806 15.296V19.244C162.806 19.4493 162.731 19.6267 162.582 19.776C162.433 19.9253 162.255 20 162.05 20H144.354C144.149 20 143.971 19.9253 143.822 19.776C143.673 19.6267 143.598 19.4493 143.598 19.244V1.156C143.598 0.950666 143.673 0.773333 143.822 0.623999C143.971 0.474665 144.149 0.399999 144.354 0.399999H161.77C161.975 0.399999 162.153 0.474665 162.302 0.623999C162.451 0.773333 162.526 0.950666 162.526 1.156V5.104C162.526 5.30933 162.451 5.48667 162.302 5.636C162.153 5.78533 161.975 5.86 161.77 5.86H150.878V7.624H160.23C160.435 7.624 160.613 7.69867 160.762 7.848C160.911 7.99733 160.986 8.17467 160.986 8.38V12.02C160.986 12.2253 160.911 12.4027 160.762 12.552C160.613 12.7013 160.435 12.776 160.23 12.776H150.878V14.54H162.05ZM187.883 19.132C187.921 19.2067 187.939 19.2907 187.939 19.384C187.939 19.552 187.874 19.7013 187.743 19.832C187.631 19.944 187.491 20 187.323 20H180.967C180.706 20 180.463 19.9347 180.239 19.804C180.034 19.6733 179.885 19.5053 179.791 19.3L177.327 13.756H174.975V19.244C174.975 19.4493 174.901 19.6267 174.751 19.776C174.602 19.9253 174.425 20 174.219 20H168.171C167.966 20 167.789 19.9253 167.639 19.776C167.49 19.6267 167.415 19.4493 167.415 19.244V1.156C167.415 0.950666 167.49 0.773333 167.639 0.623999C167.789 0.474665 167.966 0.399999 168.171 0.399999H179.063C180.743 0.399999 182.209 0.670666 183.459 1.212C184.729 1.75333 185.699 2.53733 186.371 3.564C187.043 4.59067 187.379 5.79467 187.379 7.176C187.379 9.71467 186.399 11.5533 184.439 12.692L187.883 19.132ZM178.475 8.576C178.886 8.576 179.203 8.44533 179.427 8.184C179.651 7.904 179.763 7.55867 179.763 7.148C179.763 6.73733 179.651 6.38267 179.427 6.084C179.222 5.76667 178.905 5.608 178.475 5.608H174.975V8.576H178.475Z" fill="#F3EBDD"/>
</svg>
